<?xml version="1.0" standalone="no"?>
<!DOCTYPE svg PUBLIC "-//W3C//DTD SVG 20010904//EN"
 "http://www.w3.org/TR/2001/REC-SVG-20010904/DTD/svg10.dtd">
<svg version="1.0" xmlns="http://www.w3.org/2000/svg"
 width="512.000000pt" height="512.000000pt" viewBox="0 0 512.000000 512.000000"
 preserveAspectRatio="xMidYMid meet">
<metadata>
Created by potrace 1.11, written by Peter Selinger 2001-2013
</metadata>
<g transform="translate(0.000000,512.000000) scale(0.100000,-0.100000)"
fill="#000000" stroke="none">
<path d="M2395 5100 c-98 -25 -120 -37 -143 -79 -26 -46 -22 -96 13 -181 51
-126 41 -170 -62 -278 -136 -142 -199 -266 -219 -429 -9 -80 -33 -136 -73
-170 -16 -14 -127 -56 -281 -107 -237 -78 -397 -134 -495 -174 -74 -30 -259
-127 -320 -167 -82 -53 -214 -188 -256 -260 -66 -114 -81 -167 -84 -300 -5
-193 41 -410 122 -572 33 -67 43 -80 73 -89 48 -16 58 -9 186 116 136 133 159
177 152 289 -5 74 -22 136 -59 216 -25 54 -30 90 -15 110 10 14 36 18 142 22
278 12 283 11 309 -19 31 -36 47 -120 49 -248 0 -80 -4 -114 -17 -141 -18 -39
-92 -114 -222 -226 -44 -37 -91 -78 -105 -90 -14 -12 -36 -31 -50 -43 -193
-165 -317 -340 -356 -508 -15 -59 -21 -202 -11 -242 2 -8 7 -33 12 -55 11 -57
177 -525 287 -810 131 -339 110 -434 -122 -554 -92 -48 -108 -64 -89 -87 11
-13 30 -15 128 -9 64 3 132 8 151 10 19 2 73 7 120 10 89 7 105 8 210 19 135
15 168 40 144 108 -7 22 -23 53 -35 69 -31 44 -60 136 -61 193 -1 52 10 262
17 326 18 163 24 406 15 545 -3 50 0 67 18 97 26 42 27 42 287 146 255 102
268 106 297 83 25 -21 26 -49 3 -179 -28 -161 -19 -234 35 -290 49 -52 89 -63
220 -61 108 2 213 10 288 23 17 3 47 8 65 11 185 30 401 116 616 244 114 69
176 90 254 88 65 -2 101 -24 130 -80 17 -33 19 -65 23 -289 2 -139 6 -273 8
-298 2 -25 8 -81 12 -125 18 -182 6 -286 -48 -424 -42 -103 -32 -145 42 -178
35 -16 57 -21 120 -28 30 -3 71 -7 90 -10 185 -21 431 -25 453 -7 25 21 11 37
-61 73 -118 59 -170 104 -204 179 -36 77 -22 190 41 334 67 152 158 390 186
481 14 50 32 110 40 135 156 516 89 756 -306 1096 -124 106 -164 134 -192 128
-26 -5 -53 -37 -68 -84 -6 -19 -16 -41 -22 -47 -5 -7 -6 -13 -1 -13 4 0 3 -5
-4 -12 -7 -7 -12 -18 -12 -25 0 -12 -78 -175 -111 -233 -223 -387 -607 -654
-1049 -729 -128 -22 -275 -26 -309 -9 -14 7 -33 28 -44 46 -18 30 -18 38 -6
120 19 127 16 158 -18 194 -15 16 -66 55 -113 86 -46 32 -91 62 -100 69 -232
178 -394 361 -472 531 -31 68 -41 132 -21 139 7 2 63 -47 125 -110 259 -261
482 -372 768 -381 151 -5 290 26 501 109 303 121 504 254 641 425 74 93 134
228 178 401 16 62 68 115 118 121 20 3 92 4 159 4 117 -1 124 -2 147 -26 34
-33 34 -68 1 -175 -35 -115 -39 -230 -10 -290 23 -47 42 -71 115 -147 165
-170 213 -169 279 2 59 154 98 344 107 515 14 249 -80 421 -314 579 -153 103
-270 151 -852 357 -124 43 -236 87 -250 97 -38 29 -68 89 -81 167 -32 199
-108 322 -303 488 -71 62 -72 81 -11 206 58 120 63 169 19 220 -57 69 -303
101 -459 61z m288 -568 c162 -72 268 -260 268 -477 1 -231 -112 -388 -307
-424 -218 -41 -402 76 -460 292 -16 62 -11 236 10 299 83 258 298 394 489 310z"/>
</g>
</svg>
